<?xml version="1.0" standalone="no"?>
<!DOCTYPE svg PUBLIC "-//W3C//DTD SVG 20010904//EN"
 "http://www.w3.org/TR/2001/REC-SVG-20010904/DTD/svg10.dtd">
<svg version="1.0" xmlns="http://www.w3.org/2000/svg"
 width="1280.000000pt" height="485.000000pt" viewBox="0 0 1280.000000 485.000000"
 preserveAspectRatio="xMidYMid meet">

<g transform="translate(0.000000,485.000000) scale(0.100000,-0.100000)"
fill="#000000" stroke="none">
<path d="M0 3620 l0 -1230 780 0 780 0 0 -1195 0 -1195 5620 0 5620 0 0 1225
0 1225 -950 0 -950 0 0 1200 0 1200 -5450 0 -5450 0 0 -1230z m7950 0 l0
-1170 -3945 0 -3945 0 0 1170 0 1170 3945 0 3945 0 0 -1170z m470 0 l0 -1170
-205 0 -205 0 0 1170 0 1170 205 0 205 0 0 -1170z m450 0 l0 -1170 -195 0
-195 0 0 1170 0 1170 195 0 195 0 0 -1170z m1090 0 l0 -1170 -515 0 -515 0 0
1170 0 1170 515 0 515 0 0 -1170z m880 0 l0 -1170 -410 0 -410 0 0 1170 0
1170 410 0 410 0 0 -1170z m-8430 -2405 l0 -1175 -395 0 -395 0 0 1168 c0 643
3 1172 7 1175 3 4 181 7 395 7 l388 0 0 -1175z m450 0 l0 -1175 -195 0 -195 0
0 1168 c0 643 3 1172 7 1175 3 4 91 7 195 7 l188 0 0 -1175z m9888 3 l-3
-1173 -4910 0 -4910 0 -3 1160 c-1 638 0 1166 3 1173 3 9 996 12 4915 12
l4910 0 -2 -1172z"/>
<path d="M2602 4227 l-72 -72 75 -75 75 -74 75 74 75 75 -72 72 c-40 40 -75
73 -78 73 -3 0 -38 -33 -78 -73z"/>
<path d="M5652 4227 l-72 -72 75 -75 75 -74 75 74 75 75 -72 72 c-40 40 -75
73 -78 73 -3 0 -38 -33 -78 -73z"/>
<path d="M6780 4224 c-58 -42 -111 -79 -119 -84 -14 -8 -10 -17 61 -123 3 -6
61 22 137 68 l131 78 -20 31 c-11 17 -30 48 -42 69 -12 20 -26 37 -32 37 -6
-1 -58 -35 -116 -76z"/>
<path d="M922 3758 c3 -313 4 -325 26 -373 59 -128 181 -186 358 -172 177 15
270 107 294 289 5 40 10 187 10 326 l0 252 -105 0 -105 0 0 -295 c0 -235 -3
-303 -14 -330 -43 -102 -217 -99 -253 5 -8 24 -12 128 -12 328 l-1 292 -101 0
-100 0 3 -322z"/>
<path d="M6115 4053 c-4 -16 -15 -47 -25 -70 -16 -34 -26 -44 -57 -52 -21 -6
-48 -11 -60 -11 -22 0 -23 -4 -23 -80 l0 -80 60 0 60 0 0 -163 c0 -113 4 -179
14 -211 33 -111 116 -166 249 -166 l78 0 -5 33 c-3 17 -8 57 -11 87 l-6 55
-40 1 c-70 2 -74 12 -77 199 l-3 165 60 0 61 0 0 80 0 80 -60 0 -60 0 0 80 0
80 -75 0 c-73 0 -75 0 -80 -27z"/>
<path d="M2056 3926 c-21 -8 -55 -28 -76 -45 l-38 -30 -6 34 -7 35 -74 0 -75
0 0 -345 0 -345 100 0 100 0 0 226 c0 246 4 267 58 296 41 21 108 17 134 -10
23 -22 23 -28 26 -267 l3 -245 106 0 106 0 -6 248 c-4 196 -8 256 -21 292 -43
115 -103 161 -221 167 -45 2 -84 -2 -109 -11z"/>
<path d="M3895 3931 c-92 -25 -153 -74 -189 -151 -29 -63 -36 -291 -11 -375
20 -71 77 -134 148 -166 91 -41 330 -29 406 20 11 7 8 21 -18 76 -28 60 -34
67 -54 61 -144 -42 -223 -38 -269 13 -17 20 -28 43 -28 61 l0 30 209 0 209 0
7 58 c8 69 -9 181 -35 232 -27 52 -76 99 -130 123 -49 22 -191 33 -245 18z
m169 -160 c22 -19 46 -71 46 -101 0 -19 -6 -20 -115 -20 l-115 0 0 33 c0 46
33 94 72 105 41 12 87 4 112 -17z"/>
<path d="M4778 3926 c-54 -14 -70 -25 -115 -75 l-31 -35 -15 50 -14 49 -77 3
-76 3 0 -346 0 -345 99 0 99 0 4 193 c3 170 5 197 24 232 27 54 90 87 159 83
l50 -2 17 94 c9 52 15 95 15 96 -13 9 -103 9 -139 0z"/>
<path d="M5132 3926 c-128 -42 -190 -150 -148 -261 23 -60 67 -95 197 -161
103 -51 110 -57 107 -82 -6 -54 -93 -64 -211 -26 -27 9 -53 12 -57 8 -5 -5
-20 -40 -34 -77 l-25 -68 27 -10 c111 -43 289 -49 373 -12 90 41 139 124 124
215 -15 89 -58 129 -232 217 -83 41 -95 56 -74 90 15 24 91 25 158 2 34 -12
66 -21 71 -21 11 0 77 138 70 145 -3 3 -32 15 -64 26 -76 27 -222 35 -282 15z"/>
<path d="M6695 3927 c-93 -31 -140 -71 -177 -152 -21 -45 -23 -65 -23 -200 0
-144 1 -152 28 -207 50 -101 127 -145 272 -155 84 -5 172 6 242 33 l41 16 -29
66 c-17 37 -32 68 -34 70 -1 2 -29 -4 -61 -14 -76 -22 -176 -22 -210 1 -14 9
-32 32 -40 50 -28 67 -36 64 199 67 l212 3 -1 110 c0 89 -4 119 -21 156 -50
110 -132 160 -273 166 -52 2 -100 -2 -125 -10z m158 -141 c34 -8 67 -59 67
-103 l0 -33 -115 0 c-109 0 -115 1 -115 20 0 29 24 82 46 102 18 15 57 26 79
22 6 -1 23 -5 38 -8z"/>
<path d="M2580 3575 l0 -345 100 0 100 0 0 345 0 345 -100 0 -100 0 0 -345z"/>
<path d="M2893 3908 c2 -7 53 -163 113 -346 l109 -332 134 2 134 3 109 325
c59 179 111 333 114 343 5 15 -4 17 -99 17 l-104 0 -74 -240 c-40 -132 -76
-240 -79 -240 -3 0 -38 108 -79 240 l-75 240 -104 0 c-79 0 -103 -3 -99 -12z"/>
<path d="M5630 3575 l0 -345 100 0 100 0 0 345 0 345 -100 0 -100 0 0 -345z"/>
<path d="M4237 1814 c-4 -4 -7 -183 -7 -398 0 -386 -1 -391 -23 -430 -30 -54
-78 -80 -142 -80 -69 1 -112 26 -136 77 -28 62 -27 312 1 375 27 59 88 87 172
78 62 -6 61 -7 70 58 4 25 -25 34 -111 35 -87 1 -138 -16 -187 -64 -60 -58
-74 -112 -74 -295 0 -181 14 -236 74 -296 84 -84 229 -88 333 -8 28 21 34 23
38 10 3 -9 7 -23 10 -31 3 -10 18 -15 50 -15 l45 0 -2 493 -3 492 -50 3 c-28
2 -54 0 -58 -4z"/>
<path d="M8560 1325 l0 -495 44 0 c41 0 45 2 51 30 7 32 19 39 28 16 3 -7 29
-25 58 -40 140 -70 311 2 350 147 6 24 9 111 7 216 -3 172 -4 177 -31 224 -42
71 -94 101 -184 106 -73 3 -163 -18 -163 -39 0 -21 36 -70 48 -65 81 30 171 6
202 -56 17 -33 20 -59 20 -196 0 -131 -3 -164 -18 -193 -50 -100 -216 -99
-277 2 -19 31 -20 54 -23 436 l-3 402 -54 0 -55 0 0 -495z"/>
<path d="M5694 1666 c-85 -39 -130 -121 -122 -220 8 -95 58 -145 252 -252 113
-63 156 -108 156 -167 0 -82 -51 -117 -172 -117 -41 0 -103 8 -141 19 -37 10
-70 15 -72 10 -3 -4 -12 -26 -19 -47 l-14 -40 56 -17 c88 -26 249 -32 314 -10
107 34 158 100 158 202 -1 109 -41 161 -188 243 -192 107 -222 134 -222 203 0
78 58 121 155 115 64 -4 91 -17 206 -98 62 -44 146 -70 226 -70 l53 0 0 -232
c0 -256 7 -291 64 -336 31 -24 127 -47 162 -38 21 6 24 12 24 50 l0 43 -47 6
c-35 4 -53 12 -70 32 -22 26 -23 31 -23 251 l0 224 71 0 70 0 -3 48 -3 47 -67
3 -68 3 0 74 0 75 -43 0 -42 0 -13 -52 c-16 -71 -47 -98 -113 -98 -58 0 -85
12 -191 87 -42 29 -95 60 -119 68 -64 23 -155 19 -215 -9z"/>
<path d="M4711 1516 c-51 -18 -106 -70 -132 -123 -22 -45 -24 -59 -24 -223 0
-170 1 -176 27 -230 45 -90 121 -129 254 -130 56 0 104 7 150 21 38 12 71 23
73 25 3 3 -22 70 -34 92 -1 1 -22 -5 -46 -13 -162 -58 -285 -26 -309 81 -5 21
-10 54 -10 72 l0 32 215 0 214 0 7 36 c10 54 -2 183 -21 232 -21 51 -90 114
-143 130 -50 15 -177 14 -221 -2z m182 -90 c61 -26 97 -90 97 -173 l0 -33
-165 0 -165 0 0 28 c1 50 21 117 43 141 45 49 126 65 190 37z"/>
<path d="M6942 1509 c-23 -12 -51 -32 -61 -45 -10 -13 -21 -24 -25 -24 -3 0
-10 18 -16 41 -11 40 -12 40 -53 37 l-42 -3 -3 -342 -2 -343 54 0 54 0 4 228
c3 204 6 232 25 273 29 65 74 94 143 94 30 0 64 -3 75 -8 18 -6 24 0 43 38 12
25 22 47 22 49 0 2 -14 9 -31 15 -53 18 -139 13 -187 -10z"/>
<path d="M7333 1509 c-35 -11 -63 -24 -63 -30 0 -19 29 -79 38 -79 5 0 27 6
48 14 62 21 137 29 181 17 61 -17 86 -50 91 -121 l4 -60 -40 0 c-64 0 -192
-20 -236 -37 -99 -38 -138 -95 -138 -198 1 -126 67 -194 196 -203 88 -5 129 7
184 54 l41 35 9 -33 c7 -30 12 -33 50 -36 l42 -3 0 266 c0 289 -3 310 -58 369
-15 16 -45 37 -67 47 -56 26 -198 25 -282 -2z m297 -417 c0 -109 -43 -164
-144 -183 -94 -18 -156 27 -156 112 0 93 73 137 228 138 l72 1 0 -68z"/>
<path d="M8024 1507 c-85 -41 -124 -114 -105 -198 14 -60 56 -98 192 -169 129
-68 159 -95 159 -144 -1 -61 -40 -86 -138 -86 -41 0 -96 8 -131 19 l-60 19
-17 -44 c-9 -25 -14 -47 -11 -50 16 -16 149 -44 210 -44 91 0 147 15 192 53
66 54 83 134 45 212 -24 49 -72 86 -195 148 -103 52 -136 82 -137 126 -3 85
116 113 255 60 l48 -18 20 46 c11 25 18 47 17 48 -30 21 -110 38 -193 42 -90
4 -105 2 -151 -20z"/>
<path d="M9450 1517 c-19 -6 -55 -32 -81 -57 -69 -66 -82 -120 -77 -314 5
-164 15 -206 66 -259 46 -49 99 -70 188 -75 104 -6 168 14 223 69 60 60 71
105 71 290 0 211 -21 270 -118 326 -41 24 -58 28 -142 30 -52 1 -111 -3 -130
-10z m200 -99 c71 -37 80 -65 80 -246 0 -171 -13 -217 -69 -247 -102 -52 -217
-13 -250 84 -14 42 -15 273 -1 320 28 97 141 139 240 89z"/>
<path d="M11015 1513 c-16 -8 -44 -28 -61 -45 l-31 -29 -16 41 c-15 39 -18 41
-54 38 l-38 -3 -3 -342 -2 -343 55 0 55 0 0 213 c0 161 4 226 15 264 30 101
131 148 235 109 11 -4 21 8 37 44 l21 49 -30 10 c-46 16 -148 13 -183 -6z"/>
<path d="M11450 1514 c-50 -22 -89 -61 -116 -119 -22 -46 -24 -62 -24 -221 0
-230 21 -288 124 -339 60 -30 154 -34 216 -9 45 18 46 21 23 63 -15 25 -22 29
-43 23 -43 -12 -118 -6 -145 12 -58 38 -65 66 -65 246 0 146 2 169 20 197 30
49 65 68 129 67 69 0 112 -21 143 -71 23 -38 23 -40 23 -343 0 -300 0 -306
-23 -341 -39 -64 -128 -84 -241 -55 -52 13 -53 13 -62 -11 -27 -71 -28 -70 56
-88 147 -33 279 3 334 90 16 26 35 69 40 96 7 30 11 200 11 430 l0 380 -42 -3
c-38 -3 -43 -6 -52 -35 -8 -31 -26 -46 -26 -23 0 5 -24 23 -52 40 -45 25 -63
30 -123 30 -40 -1 -85 -7 -105 -16z"/>
<path d="M10040 1272 c0 -292 7 -332 74 -398 83 -84 229 -88 332 -9 l32 25 11
-30 c9 -27 15 -30 50 -30 l41 0 0 346 0 345 -52 -3 -53 -3 -5 -250 c-5 -228
-7 -253 -25 -285 -29 -48 -76 -73 -139 -73 -70 0 -113 24 -137 76 -17 38 -19
68 -19 290 l0 247 -55 0 -55 0 0 -248z"/>
</g>
</svg>
