<?xml version="1.0" encoding="UTF-8" standalone="no"?>
<svg
   xmlns:dc="http://purl.org/dc/elements/1.1/"
   xmlns:cc="http://creativecommons.org/ns#"
   xmlns:rdf="http://www.w3.org/1999/02/22-rdf-syntax-ns#"
   xmlns:svg="http://www.w3.org/2000/svg"
   xmlns="http://www.w3.org/2000/svg"
   viewBox="0 0 793.70667 561.25336"
   height="561.25336"
   width="793.70667"
   xml:space="preserve"
   id="svg2"
   version="1.1"><metadata
     id="metadata8"><rdf:RDF><cc:Work
         rdf:about=""><dc:format>image/svg+xml</dc:format><dc:type
           rdf:resource="http://purl.org/dc/dcmitype/StillImage" /></cc:Work></rdf:RDF></metadata><defs
     id="defs6"><clipPath
       id="clipPath18"
       clipPathUnits="userSpaceOnUse"><path
         id="path16"
         d="M 0,420.94 H 595.28 V 0 H 0 Z" /></clipPath><linearGradient
       id="linearGradient44"
       spreadMethod="pad"
       gradientTransform="matrix(0,-164.05762,-164.05762,0,430.44141,319.85498)"
       gradientUnits="userSpaceOnUse"
       y2="0"
       x2="1"
       y1="0"
       x1="0"><stop
         id="stop40"
         offset="0"
         style="stop-opacity:1;stop-color:#46bbee" /><stop
         id="stop42"
         offset="1"
         style="stop-opacity:1;stop-color:#3a89b3" /></linearGradient><linearGradient
       id="linearGradient64"
       spreadMethod="pad"
       gradientTransform="matrix(0,-167.73926,-167.73926,0,491.82715,309.10303)"
       gradientUnits="userSpaceOnUse"
       y2="0"
       x2="1"
       y1="0"
       x1="0"><stop
         id="stop60"
         offset="0"
         style="stop-opacity:1;stop-color:#46bbee" /><stop
         id="stop62"
         offset="1"
         style="stop-opacity:1;stop-color:#3a89b3" /></linearGradient><clipPath
       id="clipPath74"
       clipPathUnits="userSpaceOnUse"><path
         id="path72"
         d="M 0,420.94 H 595.28 V 0 H 0 Z" /></clipPath></defs><g
     transform="matrix(1.3333333,0,0,-1.3333333,0,561.25333)"
     id="g10"><g
       id="g12"><g
         clip-path="url(#clipPath18)"
         id="g14"><g
           transform="translate(72.5806,272.1255)"
           id="g20"><path
             id="path22"
             style="fill:#1c3048;fill-opacity:1;fill-rule:nonzero;stroke:none"
             d="m 0,0 h 42.402 v -17.316 c 3.403,5.179 8.471,9.914 15.207,14.208 6.733,4.291 13.948,6.438 21.645,6.438 9.913,0 17.982,-1.887 24.198,-5.661 6.216,-3.774 10.801,-8.991 13.764,-15.651 10.212,14.208 23.605,21.312 40.182,21.312 16.279,0 27.785,-4.256 34.521,-12.765 6.732,-8.512 10.101,-21.201 10.101,-38.073 v -68.82 h -46.176 v 59.274 c 0,8.731 -1.11,14.908 -3.33,18.537 -2.22,3.625 -6.292,5.439 -12.21,5.439 -6.216,0 -10.472,-2.258 -12.765,-6.771 -2.296,-4.516 -3.441,-10.843 -3.441,-18.981 v -57.498 H 77.922 v 59.274 c 0,8.731 -1.11,14.908 -3.33,18.537 -2.22,3.625 -6.293,5.439 -12.21,5.439 -6.216,0 -10.472,-2.258 -12.765,-6.771 -2.297,-4.516 -3.441,-10.843 -3.441,-18.981 v -57.498 H 0 Z" /></g><g
           transform="translate(322.5527,191.9834)"
           id="g24"><path
             id="path26"
             style="fill:#1c3048;fill-opacity:1;fill-rule:nonzero;stroke:none"
             d="m 0,0 c 0,-4.59 1.627,-8.141 4.883,-10.656 3.109,-2.369 6.883,-3.551 11.322,-3.551 4.143,0 7.621,0.811 10.436,2.441 2.808,1.627 4.216,4.291 4.216,7.993 0,3.253 -1.925,5.66 -5.771,7.214 -3.85,1.555 -9.99,3.219 -18.426,4.995 -6.959,1.332 -12.914,2.664 -17.871,3.996 -4.961,1.332 -9.658,3.293 -14.097,5.883 -4.441,2.588 -8.068,6.067 -10.878,10.434 -2.814,4.364 -4.218,9.803 -4.218,16.317 0,7.104 1.627,13.171 4.884,18.204 3.253,5.03 7.582,9.025 12.987,11.988 5.4,2.959 11.322,5.068 17.76,6.327 6.437,1.256 12.91,1.887 19.425,1.887 7.104,0 13.836,-0.52 20.202,-1.554 6.361,-1.037 12.283,-2.886 17.759,-5.55 5.475,-2.664 9.991,-6.403 13.543,-11.211 3.551,-4.811 5.623,-10.916 6.215,-18.315 H 30.414 c -0.443,3.552 -1.926,6.362 -4.439,8.436 -2.37,1.922 -5.479,2.886 -9.325,2.886 -4.146,0 -7.365,-0.666 -9.658,-1.998 C 4.697,54.834 3.553,52.76 3.553,49.95 c 0,-2.813 1.847,-4.922 5.549,-6.327 3.697,-1.408 9.767,-2.997 18.205,-4.773 7.547,-1.63 13.836,-3.184 18.869,-4.662 5.029,-1.481 9.951,-3.552 14.763,-6.216 4.807,-2.664 8.692,-6.216 11.655,-10.656 2.959,-4.439 4.439,-9.843 4.439,-16.207 0,-12.58 -5.254,-22.498 -15.762,-29.748 -10.509,-7.252 -26.123,-10.877 -46.841,-10.877 -7.254,0 -14.135,0.631 -20.647,1.887 -6.513,1.26 -12.543,3.402 -18.092,6.438 -5.55,3.033 -10.066,7.138 -13.542,12.322 -3.48,5.178 -5.516,11.467 -6.105,18.869 z" /></g></g></g><g
       id="g28"><g
         id="g30"><g
           id="g36"><g
             id="g38"><path
               id="path46"
               style="fill:url(#linearGradient44);stroke:none"
               d="m 407.353,286.999 h 46.175 v 32.855 h -46.175 z m 0,-131.201 h 46.175 v 116.327 h -46.175 z" /></g></g></g></g><g
       id="g48"><g
         id="g50"><g
           id="g56"><g
             id="g58"><path
               id="path66"
               style="fill:url(#linearGradient64);stroke:none"
               d="m 473.576,276.4 45.963,-4.443 3.16,32.705 -45.963,4.441 z m -12.621,-130.595 45.963,-4.441 11.191,115.788 -45.963,4.442 z" /></g></g></g></g><g
       id="g68"><g
         clip-path="url(#clipPath74)"
         id="g70"><g
           transform="translate(82.6963,146.6865)"
           id="g76"><path
             id="path78"
             style="fill:#48bbed;fill-opacity:1;fill-rule:nonzero;stroke:none"
             d="M 0,0 H 6 L 0.7,-7.201 H -3 Z M -9.95,-9.201 H 9.35 V -14 h -13.6 v -9.9 h 12.8 v -4.801 h -12.8 v -11.401 h 14 V -44.9 h -19.7 z" /></g><g
           transform="translate(119.2456,114.585)"
           id="g80"><path
             id="path82"
             style="fill:#48bbed;fill-opacity:1;fill-rule:nonzero;stroke:none"
             d="m 0,0 v -0.75 c 0,-1.699 -0.192,-3.309 -0.575,-4.824 -0.383,-1.518 -1,-2.867 -1.85,-4.051 -0.85,-1.184 -1.992,-2.125 -3.425,-2.824 C -7.284,-13.148 -9,-13.5 -11,-13.5 c -4.4,0 -7.467,1.451 -9.2,4.352 -1.734,2.898 -2.6,7.632 -2.6,14.199 0,6.566 0.875,11.301 2.625,14.199 1.75,2.9 4.825,4.352 9.225,4.352 2.367,0 4.291,-0.385 5.775,-1.151 1.483,-0.767 2.583,-1.724 3.3,-2.875 0.716,-1.15 1.175,-2.318 1.375,-3.5 0.2,-1.183 0.3,-2.408 0.3,-3.676 v -0.65 h -5.7 v 0.602 c 0,0.898 -0.075,1.75 -0.225,2.548 -0.15,0.801 -0.417,1.534 -0.8,2.202 -0.384,0.666 -0.908,1.199 -1.575,1.599 -0.667,0.401 -1.5,0.6 -2.5,0.6 -1.1,0 -2.025,-0.209 -2.775,-0.625 -0.75,-0.418 -1.375,-1.133 -1.875,-2.151 -0.5,-1.017 -0.867,-2.441 -1.1,-4.275 -0.233,-1.832 -0.35,-4.184 -0.35,-7.049 0,-2.867 0.117,-5.234 0.35,-7.099 0.233,-1.868 0.6,-3.327 1.1,-4.375 0.5,-1.051 1.125,-1.801 1.875,-2.25 0.75,-0.452 1.675,-0.676 2.775,-0.676 1.133,0 2.058,0.275 2.775,0.824 0.717,0.551 1.258,1.258 1.625,2.125 0.367,0.867 0.608,1.775 0.725,2.727 C -5.758,-2.574 -5.7,-1.6 -5.7,-0.6 V 0 Z" /></g><g
           transform="translate(137.1704,105.96)"
           id="g84"><path
             id="path86"
             style="fill:#48bbed;fill-opacity:1;fill-rule:nonzero;stroke:none"
             d="m 0,0 c 0.716,0.383 1.35,1.084 1.9,2.102 0.55,1.015 0.975,2.482 1.275,4.398 0.3,1.918 0.45,4.359 0.45,7.326 0,2.901 -0.15,5.283 -0.45,7.151 -0.3,1.865 -0.725,3.298 -1.275,4.298 -0.55,1 -1.184,1.692 -1.9,2.077 -0.717,0.382 -1.542,0.574 -2.475,0.574 -0.934,0 -1.758,-0.184 -2.475,-0.551 -0.717,-0.367 -1.35,-1.059 -1.9,-2.074 -0.55,-1.018 -0.975,-2.459 -1.275,-4.324 -0.3,-1.868 -0.45,-4.25 -0.45,-7.151 0,-2.967 0.15,-5.408 0.45,-7.326 C -7.825,4.584 -7.4,3.117 -6.85,2.102 -6.3,1.084 -5.667,0.383 -4.95,0 c 0.717,-0.383 1.541,-0.574 2.475,-0.574 0.933,0 1.758,0.191 2.475,0.574 m -11.45,-0.398 c -1.883,2.982 -2.825,7.673 -2.825,14.074 0,6.4 0.942,11.092 2.825,14.074 1.883,2.984 4.875,4.477 8.975,4.477 4.1,0 7.091,-1.493 8.975,-4.477 C 8.383,24.768 9.325,20.076 9.325,13.676 9.325,7.275 8.383,2.584 6.5,-0.398 4.616,-3.383 1.625,-4.875 -2.475,-4.875 c -4.1,0 -7.092,1.492 -8.975,4.477" /></g><g
           transform="translate(151.3955,137.4854)"
           id="g88"><path
             id="path90"
             style="fill:#48bbed;fill-opacity:1;fill-rule:nonzero;stroke:none"
             d="m 0,0 h 5.7 v -30.9 h 13.8 v -4.799 H 0 Z" /></g><g
           transform="translate(174.7451,137.4854)"
           id="g92"><path
             id="path94"
             style="fill:#48bbed;fill-opacity:1;fill-rule:nonzero;stroke:none"
             d="M 0,0 H 19.3 V -4.799 H 5.7 v -9.9 H 18.5 V -19.5 H 5.7 v -11.4 h 14 v -4.799 H 0 Z" /></g><g
           transform="translate(219.8438,107.9854)"
           id="g96"><path
             id="path98"
             style="fill:#1c3048;fill-opacity:1;fill-rule:nonzero;stroke:none"
             d="M 0,0 H 2.25 C 3.283,0 4.125,0.15 4.775,0.451 5.425,0.75 5.95,1.316 6.35,2.15 6.75,2.982 7.042,4.209 7.225,5.826 7.408,7.441 7.5,9.584 7.5,12.25 c 0,2.334 -0.067,4.184 -0.2,5.551 -0.133,1.365 -0.375,2.457 -0.725,3.275 -0.35,0.817 -0.859,1.391 -1.525,1.725 -0.667,0.332 -1.567,0.5 -2.7,0.5 l -2.35,0 z M -8.4,29.5 H 4.05 c 4.233,0 7.25,-1.232 9.05,-3.699 C 14.066,24.5 14.775,22.783 15.225,20.65 15.675,18.518 15.9,15.9 15.9,12.801 15.9,9.301 15.741,6.4 15.425,4.1 15.107,1.801 14.517,-0.117 13.65,-1.65 12.783,-3.184 11.508,-4.324 9.825,-5.074 8.142,-5.824 5.933,-6.199 3.2,-6.199 H -8.4 Z" /></g><g
           transform="translate(248.6934,113.2607)"
           id="g100"><path
             id="path102"
             style="fill:#1c3048;fill-opacity:1;fill-rule:nonzero;stroke:none"
             d="m 0,0 c 0.1,-1.584 0.274,-2.859 0.524,-3.824 0.25,-0.969 0.625,-1.668 1.125,-2.102 0.5,-0.433 1.167,-0.648 2,-0.648 0.867,0 1.55,0.215 2.05,0.648 0.5,0.434 0.883,1.143 1.151,2.125 0.266,0.985 0.45,2.258 0.549,3.826 0.101,1.567 0.151,3.682 0.151,6.35 0,2.666 -0.05,4.783 -0.151,6.35 -0.099,1.566 -0.283,2.841 -0.549,3.826 -0.268,0.982 -0.651,1.691 -1.151,2.125 -0.5,0.431 -1.183,0.648 -2.05,0.648 -0.833,0 -1.5,-0.217 -2,-0.648 C 1.149,18.242 0.774,17.541 0.524,16.574 0.274,15.607 0.1,14.332 0,12.75 -0.101,11.166 -0.15,9.041 -0.15,6.375 -0.15,3.707 -0.101,1.582 0,0 m 15.899,-1.199 c -0.233,-2.051 -0.75,-3.918 -1.549,-5.602 -0.8,-1.683 -2.059,-3 -3.776,-3.949 -1.717,-0.949 -4.008,-1.426 -6.875,-1.426 -2.699,0 -4.883,0.418 -6.55,1.25 -1.667,0.834 -2.933,2.043 -3.799,3.625 -0.868,1.584 -1.451,3.467 -1.75,5.651 -0.3,2.183 -0.451,4.857 -0.451,8.025 0,3.166 0.151,5.832 0.451,8 0.299,2.166 0.882,4.051 1.75,5.65 0.866,1.6 2.132,2.817 3.799,3.651 1.667,0.832 3.851,1.25 6.55,1.25 2.867,0 5.158,-0.477 6.875,-1.426 1.717,-0.949 2.976,-2.268 3.776,-3.949 0.799,-1.684 1.316,-3.551 1.549,-5.602 0.234,-2.049 0.351,-4.574 0.351,-7.574 0,-3 -0.117,-5.525 -0.351,-7.574" /></g><g
           transform="translate(284.793,125.085)"
           id="g104"><path
             id="path106"
             style="fill:#1c3048;fill-opacity:1;fill-rule:nonzero;stroke:none"
             d="M 0,0 C 0,2.734 -0.233,4.668 -0.7,5.801 -1.167,6.934 -2.067,7.5 -3.399,7.5 -4.233,7.5 -4.892,7.283 -5.375,6.852 -5.858,6.418 -6.217,5.727 -6.45,4.775 -6.684,3.826 -6.842,2.602 -6.925,1.102 c -0.084,-1.5 -0.125,-3.551 -0.125,-6.151 0,-2.867 0.041,-5.117 0.125,-6.75 0.083,-1.635 0.25,-2.943 0.5,-3.926 0.25,-0.982 0.625,-1.673 1.125,-2.074 0.5,-0.4 1.2,-0.599 2.1,-0.599 1.433,0 2.367,0.714 2.801,2.148 0.432,1.434 0.666,3.75 0.699,6.951 h 8.1 v -1.25 c 0,-2.099 -0.174,-3.943 -0.525,-5.525 C 7.525,-17.658 6.892,-19.049 5.976,-20.25 5.058,-21.449 3.775,-22.375 2.125,-23.023 0.476,-23.674 -1.617,-24 -4.149,-24 c -2.601,0 -4.684,0.459 -6.25,1.375 -1.568,0.918 -2.735,2.191 -3.5,3.826 -0.768,1.633 -1.268,3.516 -1.5,5.651 -0.235,2.132 -0.351,4.781 -0.351,7.949 0,2.867 0.108,5.291 0.325,7.275 0.217,1.983 0.725,3.817 1.526,5.5 0.799,1.682 2.049,3.026 3.75,4.026 1.699,1 3.965,1.5 6.799,1.5 3.8,0 6.658,-0.911 8.576,-2.727 C 7.142,8.559 8.101,5.602 8.101,1.5 V 0 Z" /></g><g
           transform="translate(302.3916,130.6865)"
           id="g108"><path
             id="path110"
             style="fill:#1c3048;fill-opacity:1;fill-rule:nonzero;stroke:none"
             d="M 0,0 H -7.5 V 6.799 H 15.899 V 0 h -7.5 V -28.9 H 0 Z" /></g><g
           transform="translate(328.8418,113.2607)"
           id="g112"><path
             id="path114"
             style="fill:#1c3048;fill-opacity:1;fill-rule:nonzero;stroke:none"
             d="m 0,0 c 0.1,-1.584 0.275,-2.859 0.525,-3.824 0.25,-0.969 0.625,-1.668 1.125,-2.102 0.5,-0.433 1.166,-0.648 2,-0.648 0.866,0 1.549,0.215 2.049,0.648 0.5,0.434 0.883,1.143 1.151,2.125 0.267,0.985 0.451,2.258 0.55,3.826 0.1,1.567 0.151,3.682 0.151,6.35 0,2.666 -0.051,4.783 -0.151,6.35 -0.099,1.566 -0.283,2.841 -0.55,3.826 -0.268,0.982 -0.651,1.691 -1.151,2.125 -0.5,0.431 -1.183,0.648 -2.049,0.648 -0.834,0 -1.5,-0.217 -2,-0.648 C 1.15,18.242 0.775,17.541 0.525,16.574 0.275,15.607 0.1,14.332 0,12.75 -0.1,11.166 -0.15,9.041 -0.15,6.375 -0.15,3.707 -0.1,1.582 0,0 m 15.9,-1.199 c -0.234,-2.051 -0.75,-3.918 -1.55,-5.602 -0.799,-1.683 -2.059,-3 -3.776,-3.949 -1.717,-0.949 -4.008,-1.426 -6.875,-1.426 -2.699,0 -4.883,0.418 -6.549,1.25 -1.668,0.834 -2.933,2.043 -3.8,3.625 -0.868,1.584 -1.45,3.467 -1.75,5.651 -0.299,2.183 -0.45,4.857 -0.45,8.025 0,3.166 0.151,5.832 0.45,8 0.3,2.166 0.882,4.051 1.75,5.65 0.867,1.6 2.132,2.817 3.8,3.651 1.666,0.832 3.85,1.25 6.549,1.25 2.867,0 5.158,-0.477 6.875,-1.426 1.717,-0.949 2.977,-2.268 3.776,-3.949 0.8,-1.684 1.316,-3.551 1.55,-5.602 0.233,-2.049 0.35,-4.574 0.35,-7.574 0,-3 -0.117,-5.525 -0.35,-7.574" /></g><g
           transform="translate(358.3906,122.4365)"
           id="g116"><path
             id="path118"
             style="fill:#1c3048;fill-opacity:1;fill-rule:nonzero;stroke:none"
             d="m 0,0 h 2.6 c 1.533,0 2.632,0.457 3.3,1.375 0.666,0.916 1,2.008 1,3.273 C 6.9,6.115 6.576,7.232 5.926,8 5.275,8.766 4.15,9.148 2.551,9.148 H 0 Z M -8.4,15.049 H 5.701 c 1.733,0 3.215,-0.25 4.449,-0.75 1.233,-0.5 2.225,-1.174 2.975,-2.026 0.75,-0.849 1.301,-1.832 1.65,-2.949 0.35,-1.117 0.526,-2.308 0.526,-3.574 0,-2.535 -0.5,-4.492 -1.5,-5.875 -1,-1.385 -2.5,-2.326 -4.5,-2.826 v -0.1 c 1.299,-0.168 2.332,-0.5 3.099,-1 0.766,-0.5 1.332,-1.117 1.7,-1.849 0.367,-0.735 0.609,-1.569 0.726,-2.5 0.115,-0.934 0.192,-2.118 0.225,-3.551 0.033,-1.934 0.082,-3.383 0.15,-4.35 0.067,-0.967 0.149,-1.709 0.25,-2.224 0.1,-0.518 0.24,-0.893 0.424,-1.125 0.184,-0.235 0.441,-0.418 0.775,-0.551 V -20.65 H 7.6 c -0.332,0.599 -0.567,1.449 -0.7,2.548 -0.132,1.102 -0.199,2.668 -0.199,4.702 0,3.033 -0.242,5.041 -0.726,6.025 C 5.492,-6.393 4.566,-5.9 3.201,-5.9 H 0 v -14.75 h -8.4 z" /></g><g
           transform="translate(390.8906,130.9854)"
           id="g120"><path
             id="path122"
             style="fill:#1c3048;fill-opacity:1;fill-rule:nonzero;stroke:none"
             d="m 0,0 h -0.1 l -2.949,-15.9 h 6.1 z M -5.1,6.5 H 5.4 l 8.901,-35.699 H 5.602 L 4.301,-22.4 H -4.25 l -1.25,-6.799 h -8.699 z" /></g><g
           transform="translate(408.3906,137.4854)"
           id="g124"><path
             id="path126"
             style="fill:#1c3048;fill-opacity:1;fill-rule:nonzero;stroke:none"
             d="m 0,0 h 8.4 v -28.9 h 12.151 v -6.799 H 0 Z" /></g><g
           transform="translate(432.0391,137.4854)"
           id="g128"><path
             id="path130"
             style="fill:#1c3048;fill-opacity:1;fill-rule:nonzero;stroke:none"
             d="M 0,0 H 20.65 V -6.799 H 8.4 v -7.15 H 19.9 V -20.75 H 8.4 v -8.15 h 12.801 v -6.799 H 0 Z" /></g></g></g></g></svg>